<?xml version="1.0" encoding="UTF-8" standalone="no"?><!DOCTYPE svg PUBLIC "-//W3C//DTD SVG 1.1//EN" "http://www.w3.org/Graphics/SVG/1.1/DTD/svg11.dtd"><svg width="100%" height="100%" viewBox="0 0 1481 952" version="1.1" xmlns="http://www.w3.org/2000/svg" xmlns:xlink="http://www.w3.org/1999/xlink" xml:space="preserve" xmlns:serif="http://www.serif.com/" style="fill-rule:evenodd;clip-rule:evenodd;stroke-linecap:round;stroke-linejoin:round;stroke-miterlimit:1.5;"><rect x="0" y="0" width="1480.19" height="951.959" style="fill:#fff;"/><g transform="matrix(1,0,0,1,503.728,-225.367)"><text x="736.439px" y="472.43px" style="font-family:'ComicSansMS', 'Comic Sans MS', cursive;font-size:50px;">Logical</text><text x="736.439px" y="539.097px" style="font-family:'ComicSansMS', 'Comic Sans MS', cursive;font-size:50px;">Tree</text></g><text x="30.241px" y="583.429px" style="font-family:'ComicSansMS', 'Comic Sans MS', cursive;font-size:50px;">Arena</text><path d="M1427.42,699.678l-1400.96,-0l-0,87.553l1400.96,0c0,0 10.188,-10.243 9.724,-23.703c-0.412,-11.99 -27.97,-25.323 -27.97,-36.61c-0,-12.312 18.246,-27.24 18.246,-27.24Z" style="fill:#f0f0f0;stroke:#595959;stroke-width:1px;"/><rect x="26.461" y="699.678" width="180.4" height="87.553" style="fill:#ffead7;stroke:#595959;stroke-width:3.17px;stroke-linecap:butt;stroke-miterlimit:2;"/><rect x="331.472" y="699.678" width="180.4" height="87.553" style="fill:#ffead7;stroke:#595959;stroke-width:3.17px;stroke-linecap:butt;stroke-miterlimit:2;"/><rect x="636.484" y="699.678" width="180.4" height="87.553" style="fill:#ffead7;stroke:#595959;stroke-width:3.17px;stroke-linecap:butt;stroke-miterlimit:2;"/><rect x="941.496" y="699.678" width="180.4" height="87.553" style="fill:#ffead7;stroke:#595959;stroke-width:3.17px;stroke-linecap:butt;stroke-miterlimit:2;"/><rect x="206.86" y="699.678" width="62.306" height="87.553" style="fill:#ffca9a;stroke:#595959;stroke-width:3.17px;stroke-linecap:butt;stroke-miterlimit:2;"/><rect x="511.872" y="699.678" width="62.306" height="87.553" style="fill:#ffca9a;stroke:#595959;stroke-width:3.17px;stroke-linecap:butt;stroke-miterlimit:2;"/><rect x="816.884" y="699.678" width="62.306" height="87.553" style="fill:#ffca9a;stroke:#595959;stroke-width:3.17px;stroke-linecap:butt;stroke-miterlimit:2;"/><rect x="1121.9" y="699.678" width="62.306" height="87.553" style="fill:#ffca9a;stroke:#595959;stroke-width:3.17px;stroke-linecap:butt;stroke-miterlimit:2;"/><rect x="269.166" y="699.678" width="62.306" height="87.553" style="fill:#ffca9a;stroke:#595959;stroke-width:3.17px;stroke-linecap:butt;stroke-miterlimit:2;"/><rect x="574.178" y="699.678" width="62.306" height="87.553" style="fill:#ffca9a;stroke:#595959;stroke-width:3.17px;stroke-linecap:butt;stroke-miterlimit:2;"/><rect x="879.19" y="699.678" width="62.306" height="87.553" style="fill:#ffca9a;stroke:#595959;stroke-width:3.17px;stroke-linecap:butt;stroke-miterlimit:2;"/><rect x="1184.2" y="699.678" width="62.306" height="87.553" style="fill:#ffca9a;stroke:#595959;stroke-width:3.17px;stroke-linecap:butt;stroke-miterlimit:2;"/><text x="61.68px" y="754.953px" style="font-family:'Consolas', monospace;font-size:33.333px;">assert</text><text x="403.345px" y="754.953px" style="font-family:'Consolas', monospace;font-size:33.333px;">==</text><text x="699.194px" y="754.953px" style="font-family:'Consolas', monospace;font-size:33.333px;">foo</text><text x="1022.53px" y="754.953px" style="font-family:'Consolas', monospace;font-size:33.333px;">+</text><text x="1291.61px" y="752.365px" style="font-family:'Consolas', monospace;font-size:58.333px;">...</text><text x="48.996px" y="660.086px" style="font-family:'Consolas', monospace;font-size:33.333px;">0</text><text x="355.15px" y="660.086px" style="font-family:'Consolas', monospace;font-size:33.333px;">1</text><text x="659.354px" y="660.086px" style="font-family:'Consolas', monospace;font-size:33.333px;">2</text><text x="964.032px" y="660.086px" style="font-family:'Consolas', monospace;font-size:33.333px;">3</text><text x="1269.12px" y="660.086px" style="font-family:'Consolas', monospace;font-size:33.333px;">4</text><rect x="980.733" y="31.592" width="161.461" height="87.553" style="fill:#ffead7;stroke:#595959;stroke-width:3.17px;stroke-linecap:butt;stroke-miterlimit:2;"/><rect x="856.076" y="285.609" width="119.926" height="87.553" style="fill:#ffead7;stroke:#595959;stroke-width:3.17px;stroke-linecap:butt;stroke-miterlimit:2;"/><text x="881.676px" y="343.76px" style="font-family:'Consolas', monospace;font-size:41.667px;">foo</text><text x="992.737px" y="89.742px" style="font-family:'Consolas', monospace;font-size:41.667px;">assert</text><rect x="940.682" y="451.469" width="119.926" height="87.553" style="fill:#ffead7;stroke:#595959;stroke-width:3.17px;stroke-linecap:butt;stroke-miterlimit:2;"/><text x="966.282px" y="509.619px" style="font-family:'Consolas', monospace;font-size:41.667px;">bar</text><rect x="1137.95" y="451.469" width="119.926" height="87.553" style="fill:#ffead7;stroke:#595959;stroke-width:3.17px;stroke-linecap:butt;stroke-miterlimit:2;"/><text x="1163.55px" y="509.619px" style="font-family:'Consolas', monospace;font-size:41.667px;">123</text><rect x="994.389" y="162.137" width="76.377" height="87.553" style="fill:#ffead7;stroke:#595959;stroke-width:3.17px;stroke-linecap:butt;stroke-miterlimit:2;"/><text x="1009.67px" y="220.287px" style="font-family:'Consolas', monospace;font-size:41.667px;">==</text><rect x="1113.31" y="158.601" width="62.217" height="87.553" style="fill:#ffead7;stroke:#595959;stroke-width:3.17px;stroke-linecap:butt;stroke-miterlimit:2;"/><text x="1132.96px" y="216.751px" style="font-family:'Consolas', monospace;font-size:41.667px;">;</text><rect x="1060.61" y="285.609" width="62.217" height="87.553" style="fill:#ffead7;stroke:#595959;stroke-width:3.17px;stroke-linecap:butt;stroke-miterlimit:2;"/><text x="1080.26px" y="343.76px" style="font-family:'Consolas', monospace;font-size:41.667px;">+</text><path d="M976.833,283.415l-13.197,1.892l6.404,-11.693l-1.504,8.297l8.297,1.504Z" style="fill:#595959;"/><path d="M1015.02,249.69c-0,0 -33.646,23.32 -46.488,32.221" style="fill:none;stroke:#595959;stroke-width:3.34px;"/><path d="M321.461,806.299l11.815,-19.068l8.165,20.892l-9.078,-10.902l-10.902,9.078Z" style="fill:#595959;"/><path d="M239.387,787.231c-0.838,65.972 83.036,73.935 92.976,9.99" style="fill:none;stroke:#595959;stroke-width:3.34px;"/><path d="M1234.07,806.299l11.815,-19.068l8.165,20.892l-9.078,-10.902l-10.902,9.078Z" style="fill:#595959;"/><path d="M1152,787.231c-0.837,65.972 83.037,73.935 92.977,9.99" style="fill:none;stroke:#595959;stroke-width:3.34px;"/><path d="M627.615,806.299l11.815,-19.068l8.165,20.892l-9.078,-10.902l-10.902,9.078Z" style="fill:#595959;"/><path d="M545.541,787.231c-0.838,65.972 83.036,73.935 92.976,9.99" style="fill:none;stroke:#595959;stroke-width:3.34px;"/><path d="M933.554,806.749l11.055,-19.518l8.981,20.554l-9.5,-10.536l-10.536,9.5Z" style="fill:#595959;"/><path d="M605.991,787.231c1.988,108.945 323.07,120.772 338.099,10.018" style="fill:none;stroke:#595959;stroke-width:3.34px;"/><path d="M1363.49,899.691l19.878,10.392l-20.24,9.667l10.21,-9.848l-9.848,-10.211Z" style="fill:#595959;"/><path d="M300.812,787.231c-0.056,153.319 857.811,119.61 1072.52,122.671" style="fill:none;stroke:#595959;stroke-width:3.34px;"/><path d="M1364.24,863.112l19.126,11.718l-20.85,8.271l10.856,-9.133l-9.132,-10.856Z" style="fill:#595959;"/><path d="M1220.22,787.231c-0.844,73.255 110.23,83.194 153.146,86.737" style="fill:none;stroke:#595959;stroke-width:3.34px;"/><path d="M1074.08,272.062l1.515,13.245l-11.505,-6.735l8.25,1.74l1.74,-8.25Z" style="fill:#595959;"/><path d="M1052.39,249.69c-0,0 13.564,20.817 19.953,30.622" style="fill:none;stroke:#595959;stroke-width:3.34px;"/><path d="M1038.54,150.213l-5.962,11.924l-5.962,-11.924l5.962,5.962l5.962,-5.962Z" style="fill:#595959;"/><path d="M1032.58,119.145l-0,37.03" style="fill:none;stroke:#595959;stroke-width:3.34px;"/><path d="M1126.27,145.473l2.327,13.128l-11.898,-6.015l8.342,1.229l1.229,-8.342Z" style="fill:#595959;"/><path d="M1099.28,119.145c0,0 17.954,24.162 25.763,34.67" style="fill:none;stroke:#595959;stroke-width:3.34px;"/><path d="M1051.93,442.474l-9.927,8.898l-1.162,-13.281l3.353,7.736l7.736,-3.353Z" style="fill:#595959;"/><path d="M1072.91,373.163c0,-0 -21.666,54.815 -28.721,72.664" style="fill:none;stroke:#595959;stroke-width:3.34px;"/><path d="M1155.46,438.175l1.01,13.294l-11.241,-7.168l8.178,2.053l2.053,-8.179Z" style="fill:#595959;"/><path d="M1109.59,373.163c-0,-0 33.405,55.795 43.819,73.191" style="fill:none;stroke:#595959;stroke-width:3.34px;"/><path d="M26.461,699.678l-0,-81.218" style="fill:none;stroke:#000;stroke-width:1px;"/><path d="M331.472,699.678l0,-81.218" style="fill:none;stroke:#000;stroke-width:1px;"/><path d="M636.484,699.678l0,-81.218" style="fill:none;stroke:#000;stroke-width:1px;"/><path d="M941.496,699.678l0,-81.218" style="fill:none;stroke:#000;stroke-width:1px;"/><path d="M1246.59,699.678l-0,-81.218" style="fill:none;stroke:#000;stroke-width:1px;"/><text x="229.396px" y="754.953px" style="font-family:'Consolas', monospace;font-size:33.333px;">1</text><text x="292.794px" y="754.953px" style="font-family:'Consolas', monospace;font-size:33.333px;">6</text><text x="533.316px" y="754.953px" style="font-family:'Consolas', monospace;font-size:33.333px;">2</text><text x="597.781px" y="754.953px" style="font-family:'Consolas', monospace;font-size:33.333px;">3</text><text x="839.42px" y="754.953px" style="font-family:'Consolas', monospace;font-size:33.333px;">/</text><text x="902.818px" y="754.953px" style="font-family:'Consolas', monospace;font-size:33.333px;">/</text><text x="1144.43px" y="754.953px" style="font-family:'Consolas', monospace;font-size:33.333px;">4</text><text x="1206.74px" y="754.953px" style="font-family:'Consolas', monospace;font-size:33.333px;">5</text><g transform="matrix(1,0,0,1,-706.197,-354.848)"><text x="736.439px" y="464.941px" style="font-family:'ComicSansMS', 'Comic Sans MS', cursive;font-size:50px;">Arenas simplify creation of a</text><text x="736.439px" y="531.608px" style="font-family:'ComicSansMS', 'Comic Sans MS', cursive;font-size:50px;">complex interrelated structures</text><text x="736.439px" y="598.275px" style="font-family:'ComicSansMS', 'Comic Sans MS', cursive;font-size:50px;">like trees using a vector for</text><text x="736.439px" y="664.941px" style="font-family:'ComicSansMS', 'Comic Sans MS', cursive;font-size:50px;">storage.  &quot;Pointers&quot; are just</text><text x="736.439px" y="731.608px" style="font-family:'ComicSansMS', 'Comic Sans MS', cursive;font-size:50px;">vector indices.</text></g></svg>