<?xml version="1.0" encoding="UTF-8" standalone="no"?><!DOCTYPE svg PUBLIC "-//W3C//DTD SVG 1.1//EN" "http://www.w3.org/Graphics/SVG/1.1/DTD/svg11.dtd"><svg width="100%" height="100%" viewBox="0 0 1443 558" version="1.1" xmlns="http://www.w3.org/2000/svg" xmlns:xlink="http://www.w3.org/1999/xlink" xml:space="preserve" xmlns:serif="http://www.serif.com/" style="fill-rule:evenodd;clip-rule:evenodd;stroke-linejoin:round;stroke-miterlimit:2;"><rect x="0" y="-0" width="1442.94" height="557.018" style="fill:#fff;"/><path d="M990.399,44.241c0,-13.89 -11.276,-25.166 -25.166,-25.166l-111.128,-0c-13.89,-0 -25.167,11.276 -25.167,25.166l0,37.221c0,13.89 11.277,25.166 25.167,25.166l111.128,0c13.89,0 25.166,-11.276 25.166,-25.166l0,-37.221Z" style="fill:#fff;stroke:#595959;stroke-width:3.17px;"/><path d="M853.092,298.258c0,-13.889 -11.276,-25.166 -25.166,-25.166l-69.593,0c-13.889,0 -25.166,11.277 -25.166,25.166l-0,37.221c-0,13.89 11.277,25.167 25.166,25.167l69.593,-0c13.89,-0 25.166,-11.277 25.166,-25.167l0,-37.221Z" style="fill:#fff;stroke:#595959;stroke-width:3.17px;"/><text x="758.767px" y="331.243px" style="font-family:'Consolas', monospace;font-size:41.667px;">foo</text><text x="840.943px" y="77.225px" style="font-family:'Consolas', monospace;font-size:41.667px;">assert</text><path d="M903.947,464.118c0,-13.89 -11.276,-25.166 -25.166,-25.166l-69.593,-0c-13.889,-0 -25.166,11.276 -25.166,25.166l-0,37.221c-0,13.89 11.277,25.166 25.166,25.166l69.593,0c13.89,0 25.166,-11.276 25.166,-25.166l0,-37.221Z" style="fill:#fff;stroke:#595959;stroke-width:3.17px;"/><text x="809.622px" y="497.102px" style="font-family:'Consolas', monospace;font-size:41.667px;">bar</text><path d="M1101.22,464.118c0,-13.89 -11.276,-25.166 -25.166,-25.166l-69.593,-0c-13.889,-0 -25.166,11.276 -25.166,25.166l-0,37.221c-0,13.89 11.277,25.166 25.166,25.166l69.593,0c13.89,0 25.166,-11.276 25.166,-25.166l0,-37.221Z" style="fill:#fff;stroke:#595959;stroke-width:3.17px;"/><text x="1006.89px" y="497.102px" style="font-family:'Consolas', monospace;font-size:41.667px;">123</text><path d="M947.858,171.574c-0,-12.117 -9.838,-21.954 -21.954,-21.954l-32.47,-0c-12.117,-0 -21.954,9.837 -21.954,21.954l0,43.645c0,12.117 9.837,21.954 21.954,21.954l32.47,0c12.116,0 21.954,-9.837 21.954,-21.954l-0,-43.645Z" style="fill:#fff;stroke:#595959;stroke-width:3.17px;"/><text x="886.76px" y="207.77px" style="font-family:'Consolas', monospace;font-size:41.667px;">==</text><path d="M1052.62,163.967c-0,-9.87 -8.014,-17.884 -17.884,-17.884l-26.45,0c-9.87,0 -17.884,8.014 -17.884,17.884l0,51.786c0,9.87 8.014,17.884 17.884,17.884l26.45,-0c9.87,-0 17.884,-8.014 17.884,-17.884l-0,-51.786Z" style="fill:#fff;stroke:#595959;stroke-width:3.17px;"/><text x="1010.05px" y="204.234px" style="font-family:'Consolas', monospace;font-size:41.667px;">;</text><path d="M966.165,290.976c-0,-9.871 -8.014,-17.884 -17.884,-17.884l-26.45,0c-9.87,0 -17.884,8.013 -17.884,17.884l0,51.786c0,9.87 8.014,17.884 17.884,17.884l26.45,-0c9.87,-0 17.884,-8.014 17.884,-17.884l-0,-51.786Z" style="fill:#fff;stroke:#595959;stroke-width:3.17px;"/><text x="923.602px" y="331.243px" style="font-family:'Consolas', monospace;font-size:41.667px;">+</text><g transform="matrix(1,0,0,1,-694.032,-366.596)"><text x="736.439px" y="521.901px" style="font-family:'ComicSansMS', 'Comic Sans MS', cursive;font-size:62.5px;">Step 3</text><rect x="736.439" y="530.202" width="197.266" height="5.341"/><text x="736.439px" y="613.568px" style="font-family:'ComicSansMS', 'Comic Sans MS', cursive;font-size:62.5px;">Parse token vector</text><text x="736.439px" y="680.235px" style="font-family:'ComicSansMS', 'Comic Sans MS', cursive;font-size:62.5px;">into an Abstract</text><text x="736.439px" y="746.901px" style="font-family:'ComicSansMS', 'Comic Sans MS', cursive;font-size:62.5px;">Syntax Tree (AST).</text></g><path d="M877.159,232.61l-38.671,40.482" style="fill:none;stroke:#000;stroke-width:3.34px;stroke-linecap:round;stroke-miterlimit:1.5;"/><path d="M929.48,237.173l5.576,35.919" style="fill:none;stroke:#000;stroke-width:3.34px;stroke-linecap:round;stroke-miterlimit:1.5;"/><path d="M909.669,106.628l-0,42.992" style="fill:none;stroke:#000;stroke-width:3.34px;stroke-linecap:round;stroke-miterlimit:1.5;"/><path d="M1001.74,146.083l-31.776,-39.455" style="fill:none;stroke:#000;stroke-width:3.34px;stroke-linecap:round;stroke-miterlimit:1.5;"/><path d="M916.253,360.646l-30.913,78.209" style="fill:none;stroke:#000;stroke-width:3.34px;stroke-linecap:round;stroke-miterlimit:1.5;"/><path d="M952.931,360.646l46.883,78.306" style="fill:none;stroke:#000;stroke-width:3.34px;stroke-linecap:round;stroke-miterlimit:1.5;"/></svg>