<?xml version="1.0" encoding="UTF-8" standalone="no"?><!DOCTYPE svg PUBLIC "-//W3C//DTD SVG 1.1//EN" "http://www.w3.org/Graphics/SVG/1.1/DTD/svg11.dtd"><svg width="100%" height="100%" viewBox="0 0 1443 341" version="1.1" xmlns="http://www.w3.org/2000/svg" xmlns:xlink="http://www.w3.org/1999/xlink" xml:space="preserve" xmlns:serif="http://www.serif.com/" style="fill-rule:evenodd;clip-rule:evenodd;stroke-linejoin:round;stroke-miterlimit:2;"><rect x="0" y="-0" width="1442.94" height="340.188" style="fill:#fff;"/><path d="M856.009,183.122c0,-13.89 -11.277,-25.167 -25.166,-25.167l-69.593,0c-13.89,0 -25.166,11.277 -25.166,25.167l-0,37.22c-0,13.89 11.276,25.167 25.166,25.167l69.593,-0c13.889,-0 25.166,-11.277 25.166,-25.167l0,-37.22Z" style="fill:#fff;stroke:#595959;stroke-width:3.17px;"/><path d="M716.299,183.122c-0,-13.89 -11.277,-25.167 -25.167,-25.167l-111.128,0c-13.89,0 -25.166,11.277 -25.166,25.167l-0,37.22c-0,13.89 11.276,25.167 25.166,25.167l111.128,-0c13.89,-0 25.167,-11.277 25.167,-25.167l-0,-37.22Z" style="fill:#fff;stroke:#595959;stroke-width:3.17px;"/><text x="761.684px" y="216.106px" style="font-family:'Consolas', monospace;font-size:41.667px;">foo</text><text x="566.843px" y="216.106px" style="font-family:'Consolas', monospace;font-size:41.667px;">assert</text><path d="M1097.35,184.023c-0,-13.889 -11.277,-25.166 -25.167,-25.166l-69.592,-0c-13.89,-0 -25.167,11.277 -25.167,25.166l0,37.221c0,13.89 11.277,25.166 25.167,25.166l69.592,0c13.89,0 25.167,-11.276 25.167,-25.166l-0,-37.221Z" style="fill:#fff;stroke:#595959;stroke-width:3.17px;"/><text x="1003.03px" y="217.007px" style="font-family:'Consolas', monospace;font-size:41.667px;">bar</text><path d="M1318.38,184.023c0,-13.889 -11.276,-25.166 -25.166,-25.166l-69.593,-0c-13.89,-0 -25.166,11.277 -25.166,25.166l-0,37.221c-0,13.89 11.276,25.166 25.166,25.166l69.593,0c13.89,0 25.166,-11.276 25.166,-25.166l0,-37.221Z" style="fill:#fff;stroke:#595959;stroke-width:3.17px;"/><text x="1224.05px" y="217.007px" style="font-family:'Consolas', monospace;font-size:41.667px;">123</text><path d="M952.765,179.909c-0,-12.117 -9.838,-21.954 -21.954,-21.954l-32.47,0c-12.116,0 -21.954,9.837 -21.954,21.954l0,43.646c0,12.116 9.838,21.954 21.954,21.954l32.47,-0c12.116,-0 21.954,-9.838 21.954,-21.954l-0,-43.646Z" style="fill:#fff;stroke:#595959;stroke-width:3.17px;"/><text x="891.668px" y="216.106px" style="font-family:'Consolas', monospace;font-size:41.667px;">==</text><path d="M1402.94,175.839c0,-9.87 -8.013,-17.884 -17.883,-17.884l-26.45,0c-9.871,0 -17.884,8.014 -17.884,17.884l-0,51.786c-0,9.87 8.013,17.884 17.884,17.884l26.45,-0c9.87,-0 17.883,-8.014 17.883,-17.884l0,-51.786Z" style="fill:#fff;stroke:#595959;stroke-width:3.17px;"/><text x="1360.38px" y="216.106px" style="font-family:'Consolas', monospace;font-size:41.667px;">;</text><path d="M1178.44,175.839c0,-9.87 -8.013,-17.884 -17.884,-17.884l-26.449,0c-9.871,0 -17.884,8.014 -17.884,17.884l-0,51.786c-0,9.87 8.013,17.884 17.884,17.884l26.449,-0c9.871,-0 17.884,-8.014 17.884,-17.884l0,-51.786Z" style="fill:#fff;stroke:#595959;stroke-width:3.17px;"/><text x="1135.88px" y="216.106px" style="font-family:'Consolas', monospace;font-size:41.667px;">+</text><text x="630.813px" y="131.944px" style="font-family:'Consolas', monospace;font-size:41.667px;">0</text><text x="785.595px" y="131.944px" style="font-family:'Consolas', monospace;font-size:41.667px;">1</text><text x="901.523px" y="131.944px" style="font-family:'Consolas', monospace;font-size:41.667px;">2</text><text x="1022.6px" y="131.944px" style="font-family:'Consolas', monospace;font-size:41.667px;">3</text><text x="1133.68px" y="131.944px" style="font-family:'Consolas', monospace;font-size:41.667px;">4</text><text x="1247.1px" y="131.944px" style="font-family:'Consolas', monospace;font-size:41.667px;">5</text><text x="1361.32px" y="131.944px" style="font-family:'Consolas', monospace;font-size:41.667px;">6</text><g transform="matrix(1,0,0,1,-694.032,-407.327)"><text x="736.439px" y="522.806px" style="font-family:'ComicSansMS', 'Comic Sans MS', cursive;font-size:62.5px;">Step 2</text><rect x="736.439" y="531.107" width="197.266" height="5.341"/><text x="736.439px" y="614.473px" style="font-family:'ComicSansMS', 'Comic Sans MS', cursive;font-size:62.5px;">Tokenize string</text><text x="736.439px" y="681.139px" style="font-family:'ComicSansMS', 'Comic Sans MS', cursive;font-size:62.5px;">into a vector.</text></g></svg>