<?xml version="1.0" encoding="UTF-8" standalone="no"?><!DOCTYPE svg PUBLIC "-//W3C//DTD SVG 1.1//EN" "http://www.w3.org/Graphics/SVG/1.1/DTD/svg11.dtd"><svg width="100%" height="100%" viewBox="0 0 1560 971" version="1.1" xmlns="http://www.w3.org/2000/svg" xmlns:xlink="http://www.w3.org/1999/xlink" xml:space="preserve" xmlns:serif="http://www.serif.com/" style="fill-rule:evenodd;clip-rule:evenodd;stroke-linecap:round;stroke-linejoin:round;stroke-miterlimit:1.5;"><g id="Shapes"><path d="M298.978,29.394c-0,-15.701 -12.747,-28.449 -28.449,-28.449l-236.143,0c-15.701,0 -28.448,12.748 -28.448,28.449l-0,56.897c-0,15.701 12.747,28.448 28.448,28.448l236.143,0c15.702,0 28.449,-12.747 28.449,-28.448l-0,-56.897Z" style="fill:#fff1e7;stroke:#ff2100;stroke-width:1.89px;"/><text x="173.332px" y="182.113px" style="font-family:'LucidaConsole', 'Lucida Console', monospace;font-stretch:semi-condensed;font-size:41.667px;">Cargo.toml</text><path d="M148.25,166.637l18.934,0" style="fill:none;stroke:#000;stroke-width:1.89px;"/><text x="179.416px" y="327.029px" style="font-family:'LucidaConsole', 'Lucida Console', monospace;font-stretch:semi-condensed;font-size:41.667px;">README.md</text><path d="M148.25,311.553l18.934,0" style="fill:none;stroke:#000;stroke-width:1.89px;"/><text x="39.482px" y="73.905px" style="font-family:'LucidaConsole', 'Lucida Console', monospace;font-stretch:semi-condensed;font-size:41.667px;">MyProject</text><path d="M293.985,532.928c0,-10.496 -8.521,-19.017 -19.017,-19.017l-255.006,0c-10.495,0 -19.017,8.521 -19.017,19.017l0,38.034c0,10.496 8.522,19.017 19.017,19.017l255.006,0c10.496,0 19.017,-8.521 19.017,-19.017l0,-38.034Z" style="fill:#fff1e7;stroke:#ff2100;stroke-width:1.89px;"/><text x="109.807px" y="568.008px" style="font-family:'LucidaConsole', 'Lucida Console', monospace;font-stretch:semi-condensed;font-size:41.667px;">src</text><path d="M613.791,532.928c0,-10.496 -8.521,-19.017 -19.017,-19.017l-255.006,0c-10.495,0 -19.017,8.521 -19.017,19.017l0,38.034c0,10.496 8.522,19.017 19.017,19.017l255.006,0c10.496,0 19.017,-8.521 19.017,-19.017l0,-38.034Z" style="fill:#fff1e7;stroke:#ff2100;stroke-width:1.89px;"/><text x="417.06px" y="568.008px" style="font-family:'LucidaConsole', 'Lucida Console', monospace;font-stretch:semi-condensed;font-size:41.667px;">test</text><path d="M1082.17,532.928c-0,-10.496 -8.521,-19.017 -19.017,-19.017l-255.006,0c-10.496,0 -19.017,8.521 -19.017,19.017l-0,38.034c-0,10.496 8.521,19.017 19.017,19.017l255.006,0c10.496,0 19.017,-8.521 19.017,-19.017l-0,-38.034Z" style="fill:#fff1e7;stroke:#ff2100;stroke-width:1.89px;"/><text x="897.99px" y="568.008px" style="font-family:'LucidaConsole', 'Lucida Console', monospace;font-stretch:semi-condensed;font-size:41.667px;">foo</text><path d="M1138.22,819.647c0,-10.496 -8.521,-19.017 -19.017,-19.017l-255.006,-0c-10.496,-0 -19.017,8.521 -19.017,19.017l0,38.033c0,10.496 8.521,19.017 19.017,19.017l255.006,0c10.496,0 19.017,-8.521 19.017,-19.017l0,-38.033Z" style="fill:#fff1e7;stroke:#ff2100;stroke-width:1.89px;"/><text x="941.488px" y="854.726px" style="font-family:'LucidaConsole', 'Lucida Console', monospace;font-stretch:semi-condensed;font-size:41.667px;">fuzz</text><path d="M1558.6,819.647c-0,-10.496 -8.522,-19.017 -19.017,-19.017l-255.006,-0c-10.496,-0 -19.017,8.521 -19.017,19.017l-0,38.033c-0,10.496 8.521,19.017 19.017,19.017l255.006,0c10.495,0 19.017,-8.521 19.017,-19.017l-0,-38.033Z" style="fill:#fff1e7;stroke:#ff2100;stroke-width:1.89px;"/><text x="1361.86px" y="854.726px" style="font-family:'LucidaConsole', 'Lucida Console', monospace;font-stretch:semi-condensed;font-size:41.667px;">fuzz</text><path d="M1511.02,532.928c-0,-10.496 -8.521,-19.017 -19.017,-19.017l-255.006,0c-10.496,0 -19.017,8.521 -19.017,19.017l0,38.034c0,10.496 8.521,19.017 19.017,19.017l255.006,0c10.496,0 19.017,-8.521 19.017,-19.017l-0,-38.034Z" style="fill:#fff1e7;stroke:#ff2100;stroke-width:1.89px;"/><text x="1326.84px" y="568.008px" style="font-family:'LucidaConsole', 'Lucida Console', monospace;font-stretch:semi-condensed;font-size:41.667px;">bar</text><text x="64.385px" y="692.569px" style="font-family:'LucidaConsole', 'Lucida Console', monospace;font-stretch:semi-condensed;font-size:41.667px;">main.rs</text><text x="384.796px" y="692.569px" style="font-family:'LucidaConsole', 'Lucida Console', monospace;font-stretch:semi-condensed;font-size:41.667px;">integration.rs</text><text x="850.444px" y="692.569px" style="font-family:'LucidaConsole', 'Lucida Console', monospace;font-stretch:semi-condensed;font-size:41.667px;">Cargo.toml</text><text x="1270.82px" y="692.569px" style="font-family:'LucidaConsole', 'Lucida Console', monospace;font-stretch:semi-condensed;font-size:41.667px;">Cargo.toml</text><text x="384.796px" y="758.041px" style="font-family:'LucidaConsole', 'Lucida Console', monospace;font-stretch:semi-condensed;font-size:41.667px;">test1.foo</text><text x="850.444px" y="758.041px" style="font-family:'LucidaConsole', 'Lucida Console', monospace;font-stretch:semi-condensed;font-size:41.667px;">foo.rs</text><text x="1270.82px" y="758.041px" style="font-family:'LucidaConsole', 'Lucida Console', monospace;font-stretch:semi-condensed;font-size:41.667px;">bar.rs</text><text x="384.796px" y="819.736px" style="font-family:'LucidaConsole', 'Lucida Console', monospace;font-stretch:semi-condensed;font-size:41.667px;">test2.foo</text><text x="384.796px" y="872.204px" style="font-family:'LucidaConsole', 'Lucida Console', monospace;font-stretch:semi-condensed;font-size:41.667px;">...</text><text x="908.65px" y="970.292px" style="font-family:'LucidaConsole', 'Lucida Console', monospace;font-stretch:semi-condensed;font-size:41.667px;">...</text><text x="1329.03px" y="970.292px" style="font-family:'LucidaConsole', 'Lucida Console', monospace;font-stretch:semi-condensed;font-size:41.667px;">...</text><g><path d="M30.824,590.087l-0,91.607" style="fill:none;stroke:#000;stroke-width:1.89px;"/><path d="M30.824,681.694l19.864,-0" style="fill:none;stroke:#000;stroke-width:1.89px;"/></g><g><path d="M356.984,590.087l0,91.607" style="fill:none;stroke:#000;stroke-width:1.89px;"/><path d="M356.984,681.694l19.865,-0" style="fill:none;stroke:#000;stroke-width:1.89px;"/></g><g><path d="M822.632,590.087l-0,91.607" style="fill:none;stroke:#000;stroke-width:1.89px;"/><path d="M822.632,681.694l19.865,-0" style="fill:none;stroke:#000;stroke-width:1.89px;"/></g><g><path d="M1243.01,590.087l0,91.607" style="fill:none;stroke:#000;stroke-width:1.89px;"/><path d="M1243.01,681.694l19.865,-0" style="fill:none;stroke:#000;stroke-width:1.89px;"/></g><g><path d="M876.526,876.805l0,91.607" style="fill:none;stroke:#000;stroke-width:1.89px;"/><path d="M876.526,968.412l19.865,-0" style="fill:none;stroke:#000;stroke-width:1.89px;"/></g><g><path d="M1296.9,876.805l-0,91.607" style="fill:none;stroke:#000;stroke-width:1.89px;"/><path d="M1296.9,968.412l19.864,-0" style="fill:none;stroke:#000;stroke-width:1.89px;"/></g><g><path d="M356.984,657.968l0,91.607" style="fill:none;stroke:#000;stroke-width:1.89px;"/><path d="M356.984,749.575l19.865,-0" style="fill:none;stroke:#000;stroke-width:1.89px;"/></g><g><path d="M822.632,657.968l-0,91.607" style="fill:none;stroke:#000;stroke-width:1.89px;"/><path d="M822.632,749.575l19.865,-0" style="fill:none;stroke:#000;stroke-width:1.89px;"/></g><g><path d="M1243.01,657.968l0,91.607" style="fill:none;stroke:#000;stroke-width:1.89px;"/><path d="M1243.01,749.575l19.865,-0" style="fill:none;stroke:#000;stroke-width:1.89px;"/></g><g><path d="M356.984,719.778l0,91.607" style="fill:none;stroke:#000;stroke-width:1.89px;"/><path d="M356.984,811.385l19.865,0" style="fill:none;stroke:#000;stroke-width:1.89px;"/></g><g><path d="M356.984,777.726l0,91.606" style="fill:none;stroke:#000;stroke-width:1.89px;"/><path d="M356.984,869.332l19.865,0" style="fill:none;stroke:#000;stroke-width:1.89px;"/></g><g><path d="M822.632,746.467l-0,91.607" style="fill:none;stroke:#000;stroke-width:1.89px;"/><path d="M822.632,838.074l19.865,-0" style="fill:none;stroke:#000;stroke-width:1.89px;"/></g><g><path d="M1243.01,746.467l0,91.607" style="fill:none;stroke:#000;stroke-width:1.89px;"/><path d="M1243.01,838.074l19.865,-0" style="fill:none;stroke:#000;stroke-width:1.89px;"/></g><path d="M148.02,421.124l1216.3,-0" style="fill:none;stroke:#000;stroke-width:1.89px;"/><g><g><rect x="515.433" y="9.644" width="750.668" height="322.435" style="fill:#e5ecff;stroke:#0045ff;stroke-width:1.89px;"/><g transform="matrix(1,0,0,1,-927.775,-850.208)"><text x="1458.5px" y="911.549px" style="font-family:'LucidaConsole', 'Lucida Console', monospace;font-stretch:semi-condensed;font-size:41.667px;">[workspace]</text><text x="1458.5px" y="953.215px" style="font-family:'LucidaConsole', 'Lucida Console', monospace;font-stretch:semi-condensed;font-size:41.667px;">members = [ &quot;foo&quot;, &quot;bar&quot; ]</text><text x="1458.5px" y="1036.55px" style="font-family:'LucidaConsole', 'Lucida Console', monospace;font-stretch:semi-condensed;font-size:41.667px;">[package]</text><text x="1458.5px" y="1078.21px" style="font-family:'LucidaConsole', 'Lucida Console', monospace;font-stretch:semi-condensed;font-size:41.667px;">name = &quot;MyProject&quot;</text><text x="1458.5px" y="1119.88px" style="font-family:'LucidaConsole', 'Lucida Console', monospace;font-stretch:semi-condensed;font-size:41.667px;">...</text></g></g><path d="M433.528,198.842l81.659,132.708" style="fill:none;stroke:#0045ff;stroke-width:1.89px;"/><path d="M433.802,141.829l81.659,-132.708" style="fill:none;stroke:#0045ff;stroke-width:1.89px;"/></g></g><g id="Text"><path d="M147.465,507.881l0,-387.786" style="fill:none;stroke:#000;stroke-width:1.89px;"/><path d="M464.657,507.881l-0,-86.231" style="fill:none;stroke:#000;stroke-width:1.89px;"/><path d="M940.874,507.881l-0,-86.231" style="fill:none;stroke:#000;stroke-width:1.89px;"/><path d="M1364.5,507.881l-0,-86.231" style="fill:none;stroke:#000;stroke-width:1.89px;"/></g></svg>