<?xml version="1.0" encoding="UTF-8" standalone="no"?><!DOCTYPE svg PUBLIC "-//W3C//DTD SVG 1.1//EN" "http://www.w3.org/Graphics/SVG/1.1/DTD/svg11.dtd"><svg width="100%" height="100%" viewBox="0 0 1469 1284" version="1.1" xmlns="http://www.w3.org/2000/svg" xmlns:xlink="http://www.w3.org/1999/xlink" xml:space="preserve" xmlns:serif="http://www.serif.com/" style="fill-rule:evenodd;clip-rule:evenodd;stroke-linecap:round;stroke-linejoin:round;stroke-miterlimit:1.5;"><rect x="0" y="0" width="1468.31" height="1283.43" style="fill:#fff;"/><path d="M945.918,699.678l-894.712,-0l0,87.553l894.712,0c-0,0 6.506,-10.243 6.21,-23.703c-0.264,-11.99 -17.863,-25.323 -17.863,-36.61c-0,-12.312 11.653,-27.24 11.653,-27.24Z" style="fill:#f0f0f0;stroke:#595959;stroke-width:1px;"/><path d="M912.881,1070.75l-861.675,-0l0,87.553l861.675,0c0,0 6.266,-10.243 5.981,-23.703c-0.253,-11.99 -17.203,-25.323 -17.203,-36.611c-0,-12.311 11.222,-27.239 11.222,-27.239Z" style="fill:#f0f0f0;stroke:#595959;stroke-width:1px;"/><rect x="51.206" y="1070.75" width="180.4" height="87.553" style="fill:#c8ebff;stroke:#595959;stroke-width:3.17px;stroke-linecap:butt;stroke-miterlimit:2;"/><rect x="231.155" y="1070.75" width="180.4" height="87.553" style="fill:#c8ebff;stroke:#595959;stroke-width:3.17px;stroke-linecap:butt;stroke-miterlimit:2;"/><rect x="411.555" y="1070.75" width="180.4" height="87.553" style="fill:#c8ebff;stroke:#595959;stroke-width:3.17px;stroke-linecap:butt;stroke-miterlimit:2;"/><rect x="591.954" y="1070.75" width="180.4" height="87.553" style="fill:#c8ebff;stroke:#595959;stroke-width:3.17px;stroke-linecap:butt;stroke-miterlimit:2;"/><rect x="113.512" y="699.678" width="64.49" height="87.553" style="fill:#ffca9a;stroke:#595959;stroke-width:3.17px;stroke-linecap:butt;stroke-miterlimit:2;"/><rect x="51.206" y="699.678" width="62.306" height="87.553" style="fill:#c8ebff;stroke:#595959;stroke-width:3.17px;stroke-linecap:butt;stroke-miterlimit:2;"/><rect x="241.02" y="699.678" width="65.545" height="87.553" style="fill:#c8ebff;stroke:#595959;stroke-width:3.17px;stroke-linecap:butt;stroke-miterlimit:2;"/><rect x="430.052" y="699.678" width="63.732" height="87.553" style="fill:#c8ebff;stroke:#595959;stroke-width:3.17px;stroke-linecap:butt;stroke-miterlimit:2;"/><rect x="618.422" y="699.678" width="63.732" height="87.553" style="fill:#c8ebff;stroke:#595959;stroke-width:3.17px;stroke-linecap:butt;stroke-miterlimit:2;"/><rect x="305.51" y="699.678" width="62.306" height="87.553" style="fill:#ffca9a;stroke:#595959;stroke-width:3.17px;stroke-linecap:butt;stroke-miterlimit:2;"/><rect x="493.784" y="699.678" width="62.306" height="87.553" style="fill:#ffca9a;stroke:#595959;stroke-width:3.17px;stroke-linecap:butt;stroke-miterlimit:2;"/><rect x="682.154" y="699.678" width="62.306" height="87.553" style="fill:#ffca9a;stroke:#595959;stroke-width:3.17px;stroke-linecap:butt;stroke-miterlimit:2;"/><rect x="178.002" y="699.678" width="63.017" height="87.553" style="fill:#ffca9a;stroke:#595959;stroke-width:3.17px;stroke-linecap:butt;stroke-miterlimit:2;"/><rect x="367.816" y="699.678" width="62.306" height="87.553" style="fill:#ffca9a;stroke:#595959;stroke-width:3.17px;stroke-linecap:butt;stroke-miterlimit:2;"/><rect x="556.09" y="699.678" width="62.306" height="87.553" style="fill:#ffca9a;stroke:#595959;stroke-width:3.17px;stroke-linecap:butt;stroke-miterlimit:2;"/><rect x="744.46" y="699.678" width="62.306" height="87.553" style="fill:#ffca9a;stroke:#595959;stroke-width:3.17px;stroke-linecap:butt;stroke-miterlimit:2;"/><text x="303.028px" y="1126.03px" style="font-family:'Consolas', monospace;font-size:33.333px;">==</text><text x="86.425px" y="1126.03px" style="font-family:'Consolas', monospace;font-size:33.333px;">assert</text><text x="474.264px" y="1126.03px" style="font-family:'Consolas', monospace;font-size:33.333px;">foo</text><text x="672.991px" y="1126.03px" style="font-family:'Consolas', monospace;font-size:33.333px;">+</text><text x="672.991px" y="1126.03px" style="font-family:'Consolas', monospace;font-size:33.333px;">+</text><text x="820.173px" y="752.365px" style="font-family:'Consolas', monospace;font-size:58.333px;">...</text><text x="787.644px" y="1123.44px" style="font-family:'Consolas', monospace;font-size:58.333px;">...</text><text x="73.742px" y="660.086px" style="font-family:'Consolas', monospace;font-size:33.333px;">0</text><text x="73.742px" y="1202.3px" style="font-family:'Consolas', monospace;font-size:33.333px;">0</text><text x="264.697px" y="660.086px" style="font-family:'Consolas', monospace;font-size:33.333px;">1</text><text x="254.833px" y="1202.3px" style="font-family:'Consolas', monospace;font-size:33.333px;">1</text><text x="452.921px" y="660.086px" style="font-family:'Consolas', monospace;font-size:33.333px;">2</text><text x="434.425px" y="1202.3px" style="font-family:'Consolas', monospace;font-size:33.333px;">2</text><text x="641.292px" y="660.086px" style="font-family:'Consolas', monospace;font-size:33.333px;">3</text><text x="614.49px" y="1202.3px" style="font-family:'Consolas', monospace;font-size:33.333px;">3</text><text x="829.38px" y="660.086px" style="font-family:'Consolas', monospace;font-size:33.333px;">4</text><text x="794.89px" y="1202.3px" style="font-family:'Consolas', monospace;font-size:33.333px;">4</text><rect x="1005.48" y="31.592" width="161.461" height="87.553" style="fill:#ffead7;stroke:#595959;stroke-width:3.17px;stroke-linecap:butt;stroke-miterlimit:2;"/><rect x="880.821" y="285.609" width="119.926" height="87.553" style="fill:#ffead7;stroke:#595959;stroke-width:3.17px;stroke-linecap:butt;stroke-miterlimit:2;"/><text x="906.421px" y="343.76px" style="font-family:'Consolas', monospace;font-size:41.667px;">foo</text><text x="1017.48px" y="89.742px" style="font-family:'Consolas', monospace;font-size:41.667px;">assert</text><rect x="965.428" y="451.469" width="119.926" height="87.553" style="fill:#ffead7;stroke:#595959;stroke-width:3.17px;stroke-linecap:butt;stroke-miterlimit:2;"/><text x="991.028px" y="509.619px" style="font-family:'Consolas', monospace;font-size:41.667px;">bar</text><rect x="1162.7" y="451.469" width="119.926" height="87.553" style="fill:#ffead7;stroke:#595959;stroke-width:3.17px;stroke-linecap:butt;stroke-miterlimit:2;"/><text x="1188.3px" y="509.619px" style="font-family:'Consolas', monospace;font-size:41.667px;">123</text><rect x="1019.13" y="162.137" width="76.377" height="87.553" style="fill:#ffead7;stroke:#595959;stroke-width:3.17px;stroke-linecap:butt;stroke-miterlimit:2;"/><text x="1034.41px" y="220.287px" style="font-family:'Consolas', monospace;font-size:41.667px;">==</text><rect x="1138.05" y="158.601" width="62.217" height="87.553" style="fill:#ffead7;stroke:#595959;stroke-width:3.17px;stroke-linecap:butt;stroke-miterlimit:2;"/><text x="1157.71px" y="216.751px" style="font-family:'Consolas', monospace;font-size:41.667px;">;</text><rect x="1085.35" y="285.609" width="62.217" height="87.553" style="fill:#ffead7;stroke:#595959;stroke-width:3.17px;stroke-linecap:butt;stroke-miterlimit:2;"/><text x="1105.01px" y="343.76px" style="font-family:'Consolas', monospace;font-size:41.667px;">+</text><path d="M1001.58,283.415l-13.197,1.892l6.404,-11.693l-1.503,8.297l8.296,1.504Z" style="fill:#595959;"/><path d="M1039.77,249.69c0,0 -33.646,23.32 -46.487,32.221" style="fill:none;stroke:#595959;stroke-width:3.34px;"/><path d="M229.205,806.299l11.815,-19.068l8.165,20.892l-9.078,-10.902l-10.902,9.078Z" style="fill:#e0e0e0;"/><path d="M147.131,787.231c-0.838,65.972 83.036,73.935 92.976,9.99" style="fill:none;stroke:#e0e0e0;stroke-width:3.34px;"/><path d="M64.504,1046.17l-13.298,24.585l-11.689,-25.39l12.091,12.896l12.896,-12.091Z" style="fill:#595959;"/><path d="M78.359,788.877c-0.815,64.157 -23.442,209.558 -26.751,269.382" style="fill:none;stroke:#595959;stroke-width:4.17px;"/><path d="M244.54,1045.97l-12.934,24.778l-12.062,-25.215l12.28,12.716l12.716,-12.279Z" style="fill:#595959;"/><path d="M274.237,788.877c-0.842,126.009 -39.17,177.027 -42.413,269.377" style="fill:none;stroke:#595959;stroke-width:4.17px;"/><path d="M425.376,1044.37l-13.005,24.741l-11.99,-25.248l12.244,12.751l12.751,-12.244Z" style="fill:#595959;"/><path d="M461.751,787.231c-0.842,126.01 -45.359,177.028 -49.126,269.379" style="fill:none;stroke:#595959;stroke-width:4.17px;"/><path d="M605.053,1044.41l-13.099,24.692l-11.894,-25.294l12.195,12.798l12.798,-12.196Z" style="fill:#595959;"/><path d="M650.455,787.231c-0.842,126.011 -53.725,177.028 -58.2,269.38" style="fill:none;stroke:#595959;stroke-width:4.17px;"/><path d="M794.332,806.299l11.814,-19.068l8.165,20.892l-9.077,-10.902l-10.902,9.078Z" style="fill:#e0e0e0;"/><path d="M712.257,787.231c-0.838,65.972 83.037,73.935 92.977,9.99" style="fill:none;stroke:#e0e0e0;stroke-width:3.34px;"/><path d="M421.253,806.299l11.814,-19.068l8.166,20.892l-9.078,-10.902l-10.902,9.078Z" style="fill:#e0e0e0;"/><path d="M339.178,787.231c-0.837,65.972 83.037,73.935 92.977,9.99" style="fill:none;stroke:#e0e0e0;stroke-width:3.34px;"/><path d="M727.192,806.749l11.054,-19.518l8.982,20.554l-9.5,-10.536l-10.536,9.5Z" style="fill:#e0e0e0;"/><path d="M399.629,787.231c1.988,108.945 323.07,120.772 338.099,10.018" style="fill:none;stroke:#e0e0e0;stroke-width:3.34px;"/><path d="M919.433,903.584l19.871,10.406l-20.247,9.653l10.217,-9.841l-9.841,-10.218Z" style="fill:#e0e0e0;"/><path d="M208.556,787.231c-0.056,153.251 516.799,123.418 720.718,126.571" style="fill:none;stroke:#e0e0e0;stroke-width:3.34px;"/><path d="M920.177,863.112l19.127,11.718l-20.85,8.271l10.856,-9.133l-9.133,-10.856Z" style="fill:#e0e0e0;"/><path d="M776.164,787.231c-0.844,73.255 110.23,83.194 153.146,86.737" style="fill:none;stroke:#e0e0e0;stroke-width:3.34px;"/><path d="M1098.83,272.062l1.515,13.245l-11.505,-6.735l8.25,1.74l1.74,-8.25Z" style="fill:#595959;"/><path d="M1077.13,249.69c0,0 13.565,20.817 19.954,30.622" style="fill:none;stroke:#595959;stroke-width:3.34px;"/><path d="M1063.29,150.213l-5.962,11.924l-5.962,-11.924l5.962,5.962l5.962,-5.962Z" style="fill:#595959;"/><path d="M1057.32,119.145l0,37.03" style="fill:none;stroke:#595959;stroke-width:3.34px;"/><path d="M1151.02,145.473l2.326,13.128l-11.897,-6.015l8.341,1.229l1.23,-8.342Z" style="fill:#595959;"/><path d="M1124.03,119.145c-0,0 17.954,24.162 25.762,34.67" style="fill:none;stroke:#595959;stroke-width:3.34px;"/><path d="M1076.67,442.474l-9.928,8.898l-1.161,-13.281l3.353,7.736l7.736,-3.353Z" style="fill:#595959;"/><path d="M1097.66,373.163c-0,-0 -21.666,54.815 -28.721,72.664" style="fill:none;stroke:#595959;stroke-width:3.34px;"/><path d="M1180.21,438.175l1.01,13.294l-11.241,-7.168l8.178,2.053l2.053,-8.179Z" style="fill:#595959;"/><path d="M1134.34,373.163c0,-0 33.405,55.795 43.82,73.191" style="fill:none;stroke:#595959;stroke-width:3.34px;"/><path d="M51.206,699.678l0,-81.218" style="fill:none;stroke:#000;stroke-width:1px;"/><path d="M51.206,1241.89l0,-81.217" style="fill:none;stroke:#000;stroke-width:1px;"/><path d="M241.02,699.678l-0,-81.218" style="fill:none;stroke:#000;stroke-width:1px;"/><path d="M231.155,1241.89l-0,-81.217" style="fill:none;stroke:#000;stroke-width:1px;"/><path d="M430.052,699.678l-0,-81.218" style="fill:none;stroke:#000;stroke-width:1px;"/><path d="M411.555,1241.89l-0,-81.217" style="fill:none;stroke:#000;stroke-width:1px;"/><path d="M618.756,699.678l0,-81.218" style="fill:none;stroke:#000;stroke-width:1px;"/><path d="M591.954,1241.89l0,-81.217" style="fill:none;stroke:#000;stroke-width:1px;"/><path d="M806.844,699.678l-0,-81.218" style="fill:none;stroke:#000;stroke-width:1px;"/><path d="M772.354,1241.89l-0,-81.217" style="fill:none;stroke:#000;stroke-width:1px;"/><text x="137.14px" y="754.953px" style="font-family:'Consolas', monospace;font-size:33.333px;">1</text><text x="72.65px" y="754.953px" style="font-family:'Consolas', monospace;font-size:33.333px;">0</text><text x="263.555px" y="754.953px" style="font-family:'Consolas', monospace;font-size:33.333px;">1</text><text x="452.587px" y="754.953px" style="font-family:'Consolas', monospace;font-size:33.333px;">2</text><text x="641.292px" y="754.953px" style="font-family:'Consolas', monospace;font-size:33.333px;">3</text><text x="200.538px" y="754.953px" style="font-family:'Consolas', monospace;font-size:33.333px;">6</text><text x="326.953px" y="754.953px" style="font-family:'Consolas', monospace;font-size:33.333px;">2</text><text x="391.419px" y="754.953px" style="font-family:'Consolas', monospace;font-size:33.333px;">3</text><text x="516.32px" y="754.953px" style="font-family:'Consolas', monospace;font-size:33.333px;">/</text><text x="579.718px" y="754.953px" style="font-family:'Consolas', monospace;font-size:33.333px;">/</text><text x="704.69px" y="754.953px" style="font-family:'Consolas', monospace;font-size:33.333px;">4</text><text x="766.996px" y="754.953px" style="font-family:'Consolas', monospace;font-size:33.333px;">5</text><g transform="matrix(1,0,0,1,-681.452,-247.677)"><text x="736.439px" y="486.634px" style="font-family:'ComicSansMS', 'Comic Sans MS', cursive;font-size:50px;">Store token information outside</text><text x="736.439px" y="553.301px" style="font-family:'ComicSansMS', 'Comic Sans MS', cursive;font-size:50px;">the arena to reduce reference</text><text x="736.439px" y="619.968px" style="font-family:'ComicSansMS', 'Comic Sans MS', cursive;font-size:50px;">entanglement.</text></g><text x="990.106px" y="1141.5px" style="font-family:'ComicSansMS', 'Comic Sans MS', cursive;font-size:50px;">Token Vector</text><text x="990.106px" y="755.77px" style="font-family:'ComicSansMS', 'Comic Sans MS', cursive;font-size:50px;">Arena</text><g transform="matrix(1,0,0,1,528.473,-225.367)"><text x="736.439px" y="472.43px" style="font-family:'ComicSansMS', 'Comic Sans MS', cursive;font-size:50px;">Logical</text><text x="736.439px" y="539.097px" style="font-family:'ComicSansMS', 'Comic Sans MS', cursive;font-size:50px;">Tree</text></g></svg>